<?xml version="1.0" encoding="UTF-8"?><svg id="_レイヤー_2" xmlns="http://www.w3.org/2000/svg" viewBox="0 0 478 60.29"><defs><style>.cls-1{fill:none;}.cls-2{fill:#fff;}</style></defs><g id="_レイヤー_1-2"><rect class="cls-1" width="478" height="60.29"/><path class="cls-2" d="M67.98,38.96v-8.94c0-2.73-2.22-4.95-4.95-4.95-2.73,0-4.95,2.22-4.95,4.95h0v8.95h-4.06v-18.02h4.06v1.29l.19-.12c1.45-.82,3.09-1.24,4.76-1.23,4.79-.21,8.83,3.5,9.04,8.29,0,.21.01.41,0,.62v9.11l-4.1.05Z"/><polygon class="cls-2" points="15.07 39 15.07 16.33 19.16 16.33 19.16 34.91 29.92 34.91 29.92 39 15.07 39"/><path class="cls-2" d="M132.85,39.01c-1.95,0-3.86-.56-5.49-1.63l-.23-.14,1.29-3.88.37.26c1.11.86,2.47,1.36,3.88,1.42,1.2,0,2.42-.48,2.42-1.56,0-.76-.4-1.29-2.59-2.06-2.42-.83-4.65-2.03-4.65-5.17,0-3.11,2.53-5.62,5.64-5.61.13,0,.25,0,.38.01,1.58.02,3.12.47,4.46,1.29l.23.13-1.01,3.88-.39-.25c-.93-.67-2.02-1.07-3.17-1.14-1.11,0-1.86.58-1.86,1.45s.48,1.15,1.93,1.63c2.82.92,5.34,2.04,5.34,5.57s-2.74,5.79-6.54,5.79Z"/><path class="cls-2" d="M45.81,38.96v-1.49l-.21.13c-1.4.88-3.02,1.35-4.68,1.36-4.98.46-9.38-3.2-9.85-8.17-.46-4.98,3.2-9.38,8.17-9.85.56-.05,1.12-.05,1.67,0,1.68,0,3.32.47,4.74,1.36l.21.12v-1.47h4.06v18.02h-4.12ZM40.92,25c-2.73-.03-4.97,2.16-5,4.9-.03,2.73,2.16,4.97,4.9,5h.1c2.73,0,4.95-2.22,4.95-4.95s-2.22-4.95-4.95-4.95h0Z"/><path class="cls-2" d="M84.11,38.97c-5,.05-9.09-3.95-9.14-8.95-.05-5,3.95-9.09,8.95-9.14,2.7-.03,5.26,1.15,7.01,3.2l-3.09,2.59c-1.82-2.05-4.95-2.24-7.01-.43-2.05,1.82-2.24,4.95-.43,7.01,1.78,2.01,4.84,2.24,6.9.52.19-.16.36-.33.52-.52l3.1,2.59c-.31.36-.66.7-1.02,1.01-1.62,1.37-3.67,2.12-5.79,2.13Z"/><path class="cls-2" d="M110.72,29.95c0-5-4.05-9.05-9.05-9.05-5,0-9.05,4.05-9.05,9.05,0,4.94,3.97,8.97,8.91,9.05h.18c3.49,0,6.66-2.02,8.16-5.17h-4.98c-.89.74-2,1.14-3.15,1.15h-.06c-1.91-.05-3.63-1.19-4.42-2.93h13.25c.16-.69.23-1.39.22-2.09ZM101.67,25c1.98-.02,3.79,1.15,4.59,2.96h-9.05c.79-1.79,2.56-2.95,4.52-2.96h-.06Z"/><path class="cls-2" d="M122.9,20.94c-1.76,0-3.48.51-4.95,1.49v-1.49h-4.06v18.02h4.06v-1.51h0v-7.63c.08-2.68,2.27-4.82,4.95-4.82.63,0,1.26.13,1.85.37l1.49-3.77c-1.06-.43-2.19-.66-3.33-.66Z"/><path class="cls-2" d="M155.83,38.74c-1.58-.46-2.84-1.05-3.79-1.78l1.68-3.72c.91.67,2,1.21,3.26,1.62s2.52.61,3.78.61c1.4,0,2.44-.21,3.11-.62.67-.42,1.01-.97,1.01-1.66,0-.51-.2-.93-.59-1.26-.4-.33-.9-.6-1.52-.81-.62-.2-1.46-.43-2.51-.67-1.63-.39-2.96-.77-3.99-1.16-1.04-.39-1.93-1.01-2.67-1.86-.74-.85-1.11-1.99-1.11-3.41,0-1.24.33-2.36,1.01-3.37s1.68-1.8,3.03-2.39c1.35-.59,3-.88,4.95-.88,1.36,0,2.69.16,3.99.49,1.3.33,2.44.79,3.41,1.4l-1.52,3.75c-1.97-1.12-3.94-1.68-5.91-1.68-1.38,0-2.4.22-3.06.67-.66.45-.99,1.04-.99,1.77s.38,1.28,1.14,1.63c.76.36,1.93.71,3.49,1.05,1.63.39,2.96.77,3.99,1.16,1.04.39,1.92,1,2.67,1.83.74.83,1.11,1.96,1.11,3.38,0,1.22-.34,2.33-1.02,3.34s-1.7,1.8-3.06,2.39c-1.36.59-3.02.88-4.97.88-1.69,0-3.32-.23-4.89-.69Z"/><path class="cls-2" d="M183.28,38.27c-.47.35-1.04.6-1.72.78-.68.17-1.4.26-2.15.26-1.95,0-3.46-.5-4.53-1.49-1.07-1-1.6-2.46-1.6-4.39v-6.74h-2.53v-3.66h2.53v-3.99h4.75v3.99h4.08v3.66h-4.08v6.67c0,.69.18,1.22.53,1.6s.86.56,1.51.56c.75,0,1.39-.2,1.92-.61l1.28,3.35Z"/><path class="cls-2" d="M192.38,23.03c.96-.41,2.08-.61,3.34-.61v4.39c-.53-.04-.88-.06-1.07-.06-1.36,0-2.43.38-3.2,1.14s-1.16,1.91-1.16,3.43v7.74h-4.75v-16.4h4.54v2.16c.57-.79,1.34-1.39,2.3-1.8Z"/><path class="cls-2" d="M210.41,24.23c1.36,1.21,2.04,3.03,2.04,5.47v9.36h-4.45v-2.04c-.89,1.52-2.56,2.29-5,2.29-1.26,0-2.35-.21-3.28-.64s-1.63-1.02-2.12-1.77-.73-1.6-.73-2.56c0-1.52.57-2.72,1.72-3.6,1.15-.87,2.92-1.31,5.32-1.31h3.78c0-1.04-.32-1.83-.95-2.39-.63-.56-1.57-.84-2.83-.84-.87,0-1.73.14-2.58.41-.84.27-1.56.65-2.15,1.11l-1.71-3.32c.89-.63,1.97-1.12,3.22-1.46,1.25-.34,2.53-.52,3.86-.52,2.54,0,4.49.6,5.85,1.81ZM206.35,35.54c.63-.38,1.08-.93,1.34-1.66v-1.68h-3.26c-1.95,0-2.93.64-2.93,1.92,0,.61.24,1.09.72,1.45.48.36,1.13.53,1.97.53s1.53-.19,2.16-.56Z"/><path class="cls-2" d="M226.59,38.27c-.47.35-1.04.6-1.72.78-.68.17-1.4.26-2.15.26-1.95,0-3.46-.5-4.53-1.49-1.07-1-1.6-2.46-1.6-4.39v-6.74h-2.53v-3.66h2.53v-3.99h4.75v3.99h4.08v3.66h-4.08v6.67c0,.69.18,1.22.53,1.6s.86.56,1.51.56c.75,0,1.39-.2,1.92-.61l1.28,3.35Z"/><path class="cls-2" d="M244.51,32.2h-12.41c.22,1.02.75,1.82,1.58,2.41.83.59,1.87.88,3.11.88.85,0,1.61-.13,2.27-.38.66-.25,1.27-.66,1.84-1.2l2.53,2.74c-1.54,1.77-3.8,2.65-6.77,2.65-1.85,0-3.49-.36-4.91-1.08-1.42-.72-2.52-1.72-3.29-3-.77-1.28-1.16-2.73-1.16-4.36s.38-3.05,1.14-4.34c.76-1.29,1.81-2.3,3.14-3.02,1.33-.72,2.82-1.08,4.46-1.08s3.06.35,4.36,1.04c1.3.69,2.32,1.68,3.06,2.97.74,1.29,1.11,2.79,1.11,4.5,0,.06-.03.49-.09,1.28ZM233.39,26.93c-.73.61-1.18,1.44-1.34,2.5h8.08c-.16-1.04-.61-1.86-1.34-2.48-.73-.62-1.63-.93-2.68-.93s-1.98.31-2.71.92Z"/><path class="cls-2" d="M264.26,22.66v13.66c0,3.01-.78,5.24-2.35,6.71-1.56,1.46-3.85,2.2-6.86,2.2-1.58,0-3.09-.19-4.51-.58-1.42-.39-2.6-.95-3.54-1.68l1.89-3.41c.69.57,1.56,1.02,2.62,1.36,1.06.34,2.11.5,3.17.5,1.65,0,2.86-.37,3.64-1.11.78-.74,1.17-1.86,1.17-3.37v-.7c-1.24,1.36-2.97,2.04-5.18,2.04-1.5,0-2.88-.33-4.13-.99-1.25-.66-2.24-1.59-2.97-2.79-.73-1.2-1.1-2.58-1.1-4.14s.37-2.95,1.1-4.15,1.72-2.13,2.97-2.79c1.25-.66,2.63-.99,4.13-.99,2.38,0,4.19.78,5.42,2.35v-2.1h4.51ZM258.37,33.25c.8-.74,1.2-1.71,1.2-2.91s-.4-2.17-1.2-2.91-1.83-1.11-3.09-1.11-2.3.37-3.11,1.11c-.81.74-1.22,1.71-1.22,2.91s.41,2.17,1.22,2.91c.81.74,1.85,1.11,3.11,1.11s2.29-.37,3.09-1.11Z"/><path class="cls-2" d="M268.2,19.61c-.55-.51-.82-1.14-.82-1.89s.27-1.38.82-1.89,1.26-.76,2.13-.76,1.58.24,2.13.73c.55.49.82,1.1.82,1.83,0,.79-.27,1.45-.82,1.97-.55.52-1.26.78-2.13.78s-1.58-.25-2.13-.76ZM267.95,22.66h4.75v16.4h-4.75v-16.4Z"/><path class="cls-2" d="M279.61,38.22c-1.39-.72-2.48-1.72-3.26-3s-1.17-2.73-1.17-4.36.39-3.08,1.17-4.36,1.87-2.28,3.26-3c1.39-.72,2.96-1.08,4.71-1.08s3.24.36,4.53,1.08c1.29.72,2.23,1.75,2.82,3.09l-3.69,1.98c-.85-1.5-2.08-2.25-3.69-2.25-1.24,0-2.27.41-3.08,1.22s-1.22,1.92-1.22,3.32.41,2.51,1.22,3.32c.81.81,1.84,1.22,3.08,1.22,1.62,0,2.85-.75,3.69-2.26l3.69,2.01c-.59,1.3-1.53,2.32-2.82,3.05s-2.8,1.1-4.53,1.1-3.32-.36-4.71-1.08Z"/><path class="cls-2" d="M302.56,38.01c-1.76-.94-3.14-2.25-4.15-3.93s-1.51-3.57-1.51-5.68.5-4.01,1.51-5.68,2.39-2.99,4.15-3.93c1.76-.95,3.73-1.42,5.93-1.42,1.85,0,3.52.33,5.01.98s2.75,1.58,3.76,2.8l-3.17,2.93c-1.44-1.67-3.23-2.5-5.37-2.5-1.32,0-2.5.29-3.54.87s-1.84,1.39-2.42,2.42c-.58,1.04-.87,2.22-.87,3.54s.29,2.5.87,3.54c.58,1.04,1.39,1.84,2.42,2.42s2.21.87,3.54.87c2.13,0,3.92-.84,5.37-2.53l3.17,2.93c-1.02,1.24-2.28,2.18-3.78,2.83-1.5.65-3.18.98-5.03.98-2.17,0-4.14-.47-5.9-1.42Z"/><path class="cls-2" d="M322.68,38.22c-1.37-.72-2.44-1.72-3.22-3-.77-1.28-1.16-2.73-1.16-4.36s.39-3.08,1.16-4.36c.77-1.28,1.84-2.28,3.22-3,1.37-.72,2.92-1.08,4.65-1.08s3.27.36,4.63,1.08c1.36.72,2.43,1.72,3.2,3,.77,1.28,1.16,2.73,1.16,4.36s-.39,3.08-1.16,4.36c-.77,1.28-1.84,2.28-3.2,3-1.36.72-2.91,1.08-4.63,1.08s-3.28-.36-4.65-1.08ZM330.33,34.17c.78-.82,1.17-1.93,1.17-3.31s-.39-2.48-1.17-3.31c-.78-.82-1.78-1.23-3-1.23s-2.22.41-3.02,1.23c-.79.82-1.19,1.92-1.19,3.31s.4,2.48,1.19,3.31c.79.82,1.8,1.23,3.02,1.23s2.22-.41,3-1.23Z"/><path class="cls-2" d="M353.65,24.25c1.25,1.22,1.88,3.03,1.88,5.43v9.39h-4.75v-8.66c0-1.3-.29-2.27-.85-2.91-.57-.64-1.39-.96-2.47-.96-1.2,0-2.15.37-2.87,1.11-.71.74-1.07,1.84-1.07,3.31v8.11h-4.75v-16.4h4.54v1.92c.63-.69,1.41-1.22,2.35-1.6s1.96-.56,3.08-.56c2.03,0,3.67.61,4.92,1.83Z"/><path class="cls-2" d="M361.22,38.8c-1.3-.34-2.34-.76-3.11-1.27l1.58-3.41c.73.47,1.62.85,2.65,1.14,1.04.29,2.05.44,3.05.44,2.01,0,3.02-.5,3.02-1.49,0-.47-.27-.8-.82-1.01-.55-.2-1.39-.38-2.53-.52-1.34-.2-2.45-.44-3.32-.7-.87-.26-1.63-.73-2.27-1.4-.64-.67-.96-1.62-.96-2.87,0-1.04.3-1.96.9-2.76.6-.8,1.47-1.43,2.62-1.88,1.15-.45,2.5-.67,4.07-.67,1.16,0,2.31.13,3.46.38,1.15.25,2.1.6,2.85,1.05l-1.58,3.38c-1.44-.81-3.02-1.22-4.72-1.22-1.02,0-1.78.14-2.29.43-.51.29-.76.65-.76,1.1,0,.51.27.86.82,1.07.55.2,1.42.4,2.62.58,1.34.22,2.44.46,3.29.72s1.59.72,2.23,1.39c.63.67.94,1.61.94,2.8,0,1.02-.3,1.92-.91,2.71-.61.79-1.5,1.41-2.67,1.84-1.17.44-2.56.66-4.16.66-1.36,0-2.69-.17-3.99-.5Z"/><path class="cls-2" d="M392.28,22.66v16.4h-4.51v-1.95c-.63.71-1.38,1.25-2.26,1.63-.87.38-1.82.56-2.83.56-2.15,0-3.86-.62-5.12-1.86-1.26-1.24-1.89-3.08-1.89-5.52v-9.27h4.75v8.57c0,2.64,1.11,3.96,3.32,3.96,1.14,0,2.05-.37,2.74-1.11.69-.74,1.04-1.84,1.04-3.31v-8.11h4.75Z"/><path class="cls-2" d="M395.97,16.44h4.75v22.62h-4.75v-22.62Z"/><path class="cls-2" d="M415.29,38.27c-.47.35-1.04.6-1.72.78-.68.17-1.4.26-2.15.26-1.95,0-3.46-.5-4.53-1.49-1.07-1-1.6-2.46-1.6-4.39v-6.74h-2.53v-3.66h2.53v-3.99h4.75v3.99h4.08v3.66h-4.08v6.67c0,.69.18,1.22.53,1.6s.86.56,1.51.56c.75,0,1.39-.2,1.92-.61l1.28,3.35Z"/><path class="cls-2" d="M417.49,19.61c-.55-.51-.82-1.14-.82-1.89s.27-1.38.82-1.89,1.26-.76,2.13-.76,1.58.24,2.13.73c.55.49.82,1.1.82,1.83,0,.79-.27,1.45-.82,1.97-.55.52-1.26.78-2.13.78s-1.58-.25-2.13-.76ZM417.24,22.66h4.75v16.4h-4.75v-16.4Z"/><path class="cls-2" d="M440.57,24.25c1.25,1.22,1.88,3.03,1.88,5.43v9.39h-4.75v-8.66c0-1.3-.29-2.27-.85-2.91-.57-.64-1.39-.96-2.47-.96-1.2,0-2.15.37-2.87,1.11-.71.74-1.07,1.84-1.07,3.31v8.11h-4.75v-16.4h4.54v1.92c.63-.69,1.41-1.22,2.35-1.6s1.96-.56,3.08-.56c2.03,0,3.67.61,4.92,1.83Z"/><path class="cls-2" d="M462.93,22.66v13.66c0,3.01-.78,5.24-2.35,6.71-1.56,1.46-3.85,2.2-6.86,2.2-1.58,0-3.09-.19-4.51-.58-1.42-.39-2.6-.95-3.54-1.68l1.89-3.41c.69.57,1.56,1.02,2.62,1.36,1.06.34,2.11.5,3.17.5,1.65,0,2.86-.37,3.64-1.11.78-.74,1.17-1.86,1.17-3.37v-.7c-1.24,1.36-2.97,2.04-5.18,2.04-1.5,0-2.88-.33-4.13-.99-1.25-.66-2.24-1.59-2.97-2.79-.73-1.2-1.1-2.58-1.1-4.14s.37-2.95,1.1-4.15,1.72-2.13,2.97-2.79c1.25-.66,2.63-.99,4.13-.99,2.38,0,4.19.78,5.42,2.35v-2.1h4.51ZM457.03,33.25c.8-.74,1.2-1.71,1.2-2.91s-.4-2.17-1.2-2.91-1.83-1.11-3.09-1.11-2.3.37-3.11,1.11c-.81.74-1.22,1.71-1.22,2.91s.41,2.17,1.22,2.91c.81.74,1.85,1.11,3.11,1.11s2.29-.37,3.09-1.11Z"/></g></svg>